<svg width="112" height="32" viewBox="0 0 112 32" fill="none" xmlns="http://www.w3.org/2000/svg">
<path d="M37.0114 22V10.3636H41.6023C42.4848 10.3636 43.2367 10.5322 43.858 10.8693C44.4792 11.2027 44.9527 11.6667 45.2784 12.2614C45.608 12.8523 45.7727 13.5341 45.7727 14.3068C45.7727 15.0795 45.6061 15.7614 45.2727 16.3523C44.9394 16.9432 44.4564 17.4034 43.8239 17.733C43.1951 18.0625 42.4337 18.2273 41.5398 18.2273H38.6136V16.2557H41.142C41.6155 16.2557 42.0057 16.1742 42.3125 16.0114C42.6231 15.8447 42.8542 15.6155 43.0057 15.3239C43.161 15.0284 43.2386 14.6894 43.2386 14.3068C43.2386 13.9205 43.161 13.5833 43.0057 13.2955C42.8542 13.0038 42.6231 12.7784 42.3125 12.6193C42.0019 12.4564 41.608 12.375 41.1307 12.375H39.4716V22H37.0114ZM46.3653 22V13.2727H48.7857V22H46.3653ZM47.5812 12.1477C47.2213 12.1477 46.9126 12.0284 46.6551 11.7898C46.4013 11.5473 46.2744 11.2576 46.2744 10.9205C46.2744 10.5871 46.4013 10.3011 46.6551 10.0625C46.9126 9.82008 47.2213 9.69886 47.5812 9.69886C47.941 9.69886 48.2479 9.82008 48.5016 10.0625C48.7592 10.3011 48.888 10.5871 48.888 10.9205C48.888 11.2576 48.7592 11.5473 48.5016 11.7898C48.2479 12.0284 47.941 12.1477 47.5812 12.1477ZM52.1851 16.9545V22H49.7647V13.2727H52.0715V14.8125H52.1737C52.3669 14.3049 52.6908 13.9034 53.1453 13.608C53.5999 13.3087 54.151 13.1591 54.7987 13.1591C55.4048 13.1591 55.9332 13.2917 56.384 13.5568C56.8347 13.822 57.1851 14.2008 57.4351 14.6932C57.6851 15.1818 57.8101 15.7652 57.8101 16.4432V22H55.3897V16.875C55.3934 16.3409 55.2571 15.9242 54.9806 15.625C54.7041 15.322 54.3234 15.1705 53.8385 15.1705C53.5128 15.1705 53.2249 15.2405 52.9749 15.3807C52.7287 15.5208 52.5355 15.7254 52.3953 15.9943C52.259 16.2595 52.1889 16.5795 52.1851 16.9545ZM66.0191 15.7614L63.8032 15.8977C63.7654 15.7083 63.6839 15.5379 63.5589 15.3864C63.4339 15.2311 63.2691 15.108 63.0646 15.017C62.8638 14.9223 62.6233 14.875 62.343 14.875C61.968 14.875 61.6517 14.9545 61.3941 15.1136C61.1366 15.2689 61.0078 15.4773 61.0078 15.7386C61.0078 15.947 61.0911 16.1231 61.2578 16.267C61.4245 16.411 61.7104 16.5265 62.1157 16.6136L63.6953 16.9318C64.5438 17.1061 65.1763 17.3864 65.593 17.7727C66.0097 18.1591 66.218 18.6667 66.218 19.2955C66.218 19.8674 66.0495 20.3693 65.7123 20.8011C65.379 21.233 64.9207 21.5701 64.3373 21.8125C63.7578 22.0511 63.0892 22.1705 62.3316 22.1705C61.1763 22.1705 60.2559 21.9299 59.5703 21.4489C58.8885 20.964 58.4888 20.3049 58.3714 19.4716L60.7521 19.3466C60.8241 19.6989 60.9983 19.9678 61.2748 20.1534C61.5513 20.3352 61.9055 20.4261 62.3373 20.4261C62.7616 20.4261 63.1025 20.3447 63.3601 20.1818C63.6214 20.0152 63.754 19.8011 63.7578 19.5398C63.754 19.3201 63.6612 19.1402 63.4794 19C63.2976 18.8561 63.0173 18.7462 62.6385 18.6705L61.1271 18.3693C60.2748 18.1989 59.6404 17.9034 59.2237 17.483C58.8108 17.0625 58.6044 16.5265 58.6044 15.875C58.6044 15.3144 58.7559 14.8314 59.0589 14.4261C59.3657 14.0208 59.7957 13.7083 60.3487 13.4886C60.9055 13.2689 61.557 13.1591 62.3032 13.1591C63.4055 13.1591 64.2729 13.392 64.9055 13.858C65.5419 14.3239 65.9131 14.9583 66.0191 15.7614ZM66.7822 25.2727V13.2727H69.1685V14.7386H69.2765C69.3825 14.5038 69.5359 14.2652 69.7367 14.0227C69.9413 13.7765 70.2064 13.572 70.5322 13.4091C70.8617 13.2424 71.2708 13.1591 71.7594 13.1591C72.3958 13.1591 72.9829 13.3258 73.5208 13.6591C74.0587 13.9886 74.4886 14.4867 74.8106 15.1534C75.1325 15.8163 75.2935 16.6477 75.2935 17.6477C75.2935 18.6212 75.1363 19.4432 74.8219 20.1136C74.5113 20.7803 74.0871 21.286 73.5492 21.6307C73.0151 21.9716 72.4166 22.142 71.7537 22.142C71.2841 22.142 70.8844 22.0644 70.5549 21.9091C70.2291 21.7538 69.9621 21.5587 69.7537 21.3239C69.5454 21.0852 69.3863 20.8447 69.2765 20.6023H69.2026V25.2727H66.7822ZM69.1515 17.6364C69.1515 18.1553 69.2234 18.608 69.3674 18.9943C69.5113 19.3807 69.7197 19.6818 69.9924 19.8977C70.2651 20.1098 70.5966 20.2159 70.9867 20.2159C71.3806 20.2159 71.714 20.108 71.9867 19.892C72.2594 19.6723 72.4659 19.3693 72.606 18.983C72.75 18.5928 72.8219 18.1439 72.8219 17.6364C72.8219 17.1326 72.7519 16.6894 72.6117 16.3068C72.4716 15.9242 72.2651 15.625 71.9924 15.4091C71.7197 15.1932 71.3844 15.0852 70.9867 15.0852C70.5928 15.0852 70.2594 15.1894 69.9867 15.3977C69.7178 15.6061 69.5113 15.9015 69.3674 16.2841C69.2234 16.6667 69.1515 17.1174 69.1515 17.6364ZM78.3676 10.3636V22H75.9472V10.3636H78.3676ZM81.8352 22.1648C81.2784 22.1648 80.7821 22.0682 80.3465 21.875C79.9109 21.678 79.5662 21.3883 79.3124 21.0057C79.0624 20.6193 78.9374 20.1383 78.9374 19.5625C78.9374 19.0777 79.0265 18.6705 79.2045 18.3409C79.3825 18.0114 79.6249 17.7462 79.9318 17.5455C80.2386 17.3447 80.5871 17.1932 80.9772 17.0909C81.3712 16.9886 81.784 16.9167 82.2159 16.875C82.7234 16.822 83.1325 16.7727 83.4431 16.7273C83.7537 16.678 83.9791 16.6061 84.1193 16.5114C84.2594 16.4167 84.3295 16.2765 84.3295 16.0909V16.0568C84.3295 15.697 84.2159 15.4186 83.9886 15.2216C83.7651 15.0246 83.4469 14.9261 83.034 14.9261C82.5984 14.9261 82.2518 15.0227 81.9943 15.2159C81.7367 15.4053 81.5662 15.6439 81.4829 15.9318L79.2443 15.75C79.3579 15.2197 79.5814 14.7614 79.9147 14.375C80.2481 13.9848 80.678 13.6856 81.2045 13.4773C81.7348 13.2652 82.3484 13.1591 83.0454 13.1591C83.5302 13.1591 83.9943 13.2159 84.4374 13.3295C84.8844 13.4432 85.2802 13.6193 85.6249 13.858C85.9734 14.0966 86.2481 14.4034 86.4488 14.7784C86.6496 15.1496 86.7499 15.5947 86.7499 16.1136V22H84.4545V20.7898H84.3863C84.2462 21.0625 84.0587 21.303 83.8238 21.5114C83.589 21.7159 83.3068 21.8769 82.9772 21.9943C82.6477 22.108 82.267 22.1648 81.8352 22.1648ZM82.5284 20.4943C82.8844 20.4943 83.1988 20.4242 83.4715 20.2841C83.7443 20.1402 83.9583 19.947 84.1136 19.7045C84.2689 19.4621 84.3465 19.1875 84.3465 18.8807V17.9545C84.2708 18.0038 84.1666 18.0492 84.034 18.0909C83.9052 18.1288 83.7594 18.1648 83.5965 18.1989C83.4337 18.2292 83.2708 18.2576 83.1079 18.2841C82.945 18.3068 82.7973 18.3277 82.6647 18.3466C82.3806 18.3883 82.1325 18.4545 81.9204 18.5455C81.7083 18.6364 81.5435 18.7595 81.4261 18.9148C81.3087 19.0663 81.2499 19.2557 81.2499 19.483C81.2499 19.8125 81.3693 20.0644 81.6079 20.2386C81.8503 20.4091 82.1571 20.4943 82.5284 20.4943ZM94.9291 15.7614L92.7132 15.8977C92.6754 15.7083 92.5939 15.5379 92.4689 15.3864C92.3439 15.2311 92.1791 15.108 91.9746 15.017C91.7738 14.9223 91.5333 14.875 91.253 14.875C90.878 14.875 90.5617 14.9545 90.3041 15.1136C90.0466 15.2689 89.9178 15.4773 89.9178 15.7386C89.9178 15.947 90.0011 16.1231 90.1678 16.267C90.3344 16.411 90.6204 16.5265 91.0257 16.6136L92.6053 16.9318C93.4538 17.1061 94.0863 17.3864 94.503 17.7727C94.9197 18.1591 95.128 18.6667 95.128 19.2955C95.128 19.8674 94.9595 20.3693 94.6223 20.8011C94.289 21.233 93.8307 21.5701 93.2473 21.8125C92.6678 22.0511 91.9992 22.1705 91.2416 22.1705C90.0863 22.1705 89.1659 21.9299 88.4803 21.4489C87.7985 20.964 87.3988 20.3049 87.2814 19.4716L89.6621 19.3466C89.7341 19.6989 89.9083 19.9678 90.1848 20.1534C90.4613 20.3352 90.8155 20.4261 91.2473 20.4261C91.6716 20.4261 92.0125 20.3447 92.2701 20.1818C92.5314 20.0152 92.664 19.8011 92.6678 19.5398C92.664 19.3201 92.5712 19.1402 92.3894 19C92.2076 18.8561 91.9273 18.7462 91.5485 18.6705L90.0371 18.3693C89.1848 18.1989 88.5504 17.9034 88.1337 17.483C87.7208 17.0625 87.5144 16.5265 87.5144 15.875C87.5144 15.3144 87.6659 14.8314 87.9689 14.4261C88.2757 14.0208 88.7057 13.7083 89.2587 13.4886C89.8155 13.2689 90.467 13.1591 91.2132 13.1591C92.3155 13.1591 93.1829 13.392 93.8155 13.858C94.4519 14.3239 94.8231 14.9583 94.9291 15.7614ZM98.1126 16.9545V22H95.6922V10.3636H98.0444V14.8125H98.1467C98.3437 14.2973 98.6619 13.8939 99.1012 13.6023C99.5406 13.3068 100.092 13.1591 100.755 13.1591C101.361 13.1591 101.889 13.2917 102.34 13.5568C102.794 13.8182 103.147 14.1951 103.397 14.6875C103.65 15.1761 103.775 15.7614 103.772 16.4432V22H101.351V16.875C101.355 16.3371 101.219 15.9186 100.942 15.6193C100.669 15.3201 100.287 15.1705 99.7944 15.1705C99.4649 15.1705 99.1732 15.2405 98.9194 15.3807C98.6694 15.5208 98.4725 15.7254 98.3285 15.9943C98.1884 16.2595 98.1164 16.5795 98.1126 16.9545Z" fill="#171717"/>
<path d="M14.8333 18.3333H16.5833C18.8385 18.3333 20.6667 16.5052 20.6667 14.25C20.6667 11.9948 18.8385 10.1667 16.5833 10.1667H12.5V21.8333H14.8333V18.3333ZM6.66667 5.5H25.3333C25.9777 5.5 26.5 6.02234 26.5 6.66667V25.3333C26.5 25.9777 25.9777 26.5 25.3333 26.5H6.66667C6.02234 26.5 5.5 25.9777 5.5 25.3333V6.66667C5.5 6.02234 6.02234 5.5 6.66667 5.5ZM14.8333 12.5H16.5833C17.5498 12.5 18.3333 13.2835 18.3333 14.25C18.3333 15.2165 17.5498 16 16.5833 16H14.8333V12.5Z" fill="black"/>
</svg>
