<svg width="32" height="32" viewBox="0 0 32 32" fill="none" xmlns="http://www.w3.org/2000/svg">
<path d="M14.8333 18.3333H16.5833C18.8385 18.3333 20.6667 16.5052 20.6667 14.25C20.6667 11.9948 18.8385 10.1667 16.5833 10.1667H12.5V21.8333H14.8333V18.3333ZM6.66667 5.5H25.3333C25.9777 5.5 26.5 6.02234 26.5 6.66667V25.3333C26.5 25.9777 25.9777 26.5 25.3333 26.5H6.66667C6.02234 26.5 5.5 25.9777 5.5 25.3333V6.66667C5.5 6.02234 6.02234 5.5 6.66667 5.5ZM14.8333 12.5H16.5833C17.5498 12.5 18.3333 13.2835 18.3333 14.25C18.3333 15.2165 17.5498 16 16.5833 16H14.8333V12.5Z" fill="black"/>
</svg>
